<svg width="24" height="25" viewBox="0 0 24 25" fill="none" xmlns="http://www.w3.org/2000/svg">
<g clip-path="url(#clip0_36903_34)">
<path d="M9 19.4999C4 20.9999 4 16.9999 2 16.4999M16 22.4999V18.6299C16.0375 18.153 15.9731 17.6737 15.811 17.2237C15.6489 16.7737 15.3929 16.3633 15.06 16.0199C18.2 15.6699 21.5 14.4799 21.5 9.01988C21.4997 7.6237 20.9627 6.28108 20 5.26988C20.4559 4.04838 20.4236 2.69823 19.91 1.49988C19.91 1.49988 18.73 1.14988 16 2.97988C13.708 2.3587 11.292 2.3587 9 2.97988C6.27 1.14988 5.09 1.49988 5.09 1.49988C4.57638 2.69823 4.54414 4.04838 5 5.26988C4.03013 6.28858 3.49252 7.64334 3.5 9.04988C3.5 14.4699 6.8 15.6599 9.94 16.0499C9.611 16.3898 9.35726 16.7953 9.19531 17.2398C9.03335 17.6843 8.96681 18.1579 9 18.6299V22.4999" stroke="#676767" stroke-width="2" stroke-linecap="round" stroke-linejoin="round"/>
</g>
<defs>
<clipPath id="clip0_36903_34">
<rect width="24" height="24" fill="white" transform="translate(0 0.499878)"/>
</clipPath>
</defs>
</svg>
