<svg width="24" height="25" viewBox="0 0 24 25" fill="none" xmlns="http://www.w3.org/2000/svg">
<path d="M16 8.49988C17.5913 8.49988 19.1174 9.13202 20.2426 10.2572C21.3679 11.3825 22 12.9086 22 14.4999V21.4999H18V14.4999C18 13.9694 17.7893 13.4607 17.4142 13.0857C17.0391 12.7106 16.5304 12.4999 16 12.4999C15.4696 12.4999 14.9609 12.7106 14.5858 13.0857C14.2107 13.4607 14 13.9694 14 14.4999V21.4999H10V14.4999C10 12.9086 10.6321 11.3825 11.7574 10.2572C12.8826 9.13202 14.4087 8.49988 16 8.49988Z" stroke="#676767" stroke-width="2" stroke-linecap="round" stroke-linejoin="round"/>
<path d="M6 9.49988H2V21.4999H6V9.49988Z" stroke="#676767" stroke-width="2" stroke-linecap="round" stroke-linejoin="round"/>
<path d="M4 6.49988C5.10457 6.49988 6 5.60445 6 4.49988C6 3.39531 5.10457 2.49988 4 2.49988C2.89543 2.49988 2 3.39531 2 4.49988C2 5.60445 2.89543 6.49988 4 6.49988Z" stroke="#676767" stroke-width="2" stroke-linecap="round" stroke-linejoin="round"/>
</svg>