<svg width="29" height="21" viewBox="0 0 29 21" fill="none" xmlns="http://www.w3.org/2000/svg">
<path d="M2.73313 18.04L1.19713 17.104L6.21313 9.88L1.58113 2.272L3.11713 1.336L4.41313 1.648L9.26113 8.704L9.74113 9.88L9.26113 11.056L4.02913 17.728L2.73313 18.04Z" fill="#D7D5D5"/>
<path d="M12.2488 18.04L10.7128 17.104L15.7288 9.88L11.0968 2.272L12.6328 1.336L13.9288 1.648L18.7768 8.704L19.2568 9.88L18.7768 11.056L13.5448 17.728L12.2488 18.04Z" fill="#451A09"/>
<path d="M21.7644 18.04L20.2284 17.104L25.2444 9.88L20.6124 2.272L22.1484 1.336L23.4444 1.648L28.2924 8.704L28.7724 9.88L28.2924 11.056L23.0604 17.728L21.7644 18.04Z" fill="#FFFCF3"/>
</svg>
