<svg width="29" height="18" viewBox="0 0 29 18" fill="none" xmlns="http://www.w3.org/2000/svg">
<path d="M2.73313 17.04L1.19713 16.104L6.21313 8.88L1.58113 1.272L3.11713 0.335999L4.41313 0.647999L9.26113 7.704L9.74113 8.88L9.26113 10.056L4.02913 16.728L2.73313 17.04Z" fill="#9E938F"/>
<path d="M12.2488 17.04L10.7128 16.104L15.7288 8.88L11.0968 1.272L12.6328 0.335999L13.9288 0.647999L18.7768 7.704L19.2568 8.88L18.7768 10.056L13.5448 16.728L12.2488 17.04Z" fill="#635149"/>
<path d="M21.7644 17.04L20.2284 16.104L25.2444 8.88L20.6124 1.272L22.1484 0.335999L23.4444 0.647999L28.2924 7.704L28.7724 8.88L28.2924 10.056L23.0604 16.728L21.7644 17.04Z" fill="#451A09"/>
</svg>
