<svg width="12" height="14" viewBox="0 0 12 14" fill="none" xmlns="http://www.w3.org/2000/svg">
<path d="M4.5 1H7.5C7.63261 1 7.75979 0.947322 7.85355 0.853553C7.94732 0.759785 8 0.632608 8 0.5C8 0.367392 7.94732 0.240215 7.85355 0.146447C7.75979 0.0526784 7.63261 0 7.5 0L4.5 0C4.36739 0 4.24021 0.0526784 4.14645 0.146447C4.05268 0.240215 4 0.367392 4 0.5C4 0.632608 4.05268 0.759785 4.14645 0.853553C4.24021 0.947322 4.36739 1 4.5 1Z" fill="#FFFCF3"/>
<path d="M6 2C4.81331 2 3.65328 2.35189 2.66658 3.01118C1.67989 3.67047 0.910851 4.60754 0.456725 5.7039C0.00259972 6.80026 -0.11622 8.00666 0.115291 9.17054C0.346802 10.3344 0.918247 11.4035 1.75736 12.2426C2.59648 13.0818 3.66557 13.6532 4.82946 13.8847C5.99335 14.1162 7.19975 13.9974 8.2961 13.5433C9.39246 13.0892 10.3295 12.3201 10.9888 11.3334C11.6481 10.3467 12 9.18669 12 8C11.9967 6.40972 11.3635 4.88551 10.239 3.76101C9.11449 2.6365 7.59029 2.0033 6 2ZM8.83125 5.88125L6.35625 8.35625C6.26068 8.44866 6.13294 8.50032 6 8.50032C5.86706 8.50032 5.73932 8.44866 5.64375 8.35625C5.54986 8.26145 5.49719 8.13342 5.49719 8C5.49719 7.86658 5.54986 7.73855 5.64375 7.64375L8.11875 5.16875C8.16358 5.11413 8.21935 5.06949 8.28247 5.03772C8.34559 5.00595 8.41467 4.98775 8.48525 4.98428C8.55583 4.98082 8.62635 4.99216 8.69228 5.0176C8.75821 5.04303 8.81808 5.08198 8.86805 5.13195C8.91802 5.18192 8.95697 5.24179 8.98241 5.30772C9.00784 5.37365 9.01919 5.44418 9.01572 5.51476C9.01225 5.58534 8.99405 5.65441 8.96228 5.71753C8.93051 5.78065 8.88588 5.83642 8.83125 5.88125Z" fill="#FFFCF3"/>
</svg>
