<svg width="130" height="20" viewBox="0 0 130 20" fill="none" xmlns="http://www.w3.org/2000/svg">
<path d="M6.5625 4.65L9.3625 1.025C9.5625 0.758333 9.8 0.5625 10.075 0.4375C10.35 0.3125 10.6375 0.25 10.9375 0.25C11.2375 0.25 11.525 0.3125 11.8 0.4375C12.075 0.5625 12.3125 0.758333 12.5125 1.025L15.3125 4.65L19.5625 6.075C19.9958 6.20833 20.3375 6.45417 20.5875 6.8125C20.8375 7.17083 20.9625 7.56667 20.9625 8C20.9625 8.2 20.9333 8.4 20.875 8.6C20.8167 8.8 20.7208 8.99167 20.5875 9.175L17.8375 13.075L17.9375 17.175C17.9542 17.7583 17.7625 18.25 17.3625 18.65C16.9625 19.05 16.4958 19.25 15.9625 19.25C15.9292 19.25 15.7458 19.225 15.4125 19.175L10.9375 17.925L6.4625 19.175C6.37917 19.2083 6.2875 19.2292 6.1875 19.2375C6.0875 19.2458 5.99583 19.25 5.9125 19.25C5.37917 19.25 4.9125 19.05 4.5125 18.65C4.1125 18.25 3.92083 17.7583 3.9375 17.175L4.0375 13.05L1.3125 9.175C1.17917 8.99167 1.08333 8.8 1.025 8.6C0.966667 8.4 0.9375 8.2 0.9375 8C0.9375 7.58333 1.05833 7.19583 1.3 6.8375C1.54167 6.47917 1.87917 6.225 2.3125 6.075L6.5625 4.65Z" fill="#FFC700"/>
<path d="M33.5875 4.65L36.3875 1.025C36.5875 0.758333 36.825 0.5625 37.1 0.4375C37.375 0.3125 37.6625 0.25 37.9625 0.25C38.2625 0.25 38.55 0.3125 38.825 0.4375C39.1 0.5625 39.3375 0.758333 39.5375 1.025L42.3375 4.65L46.5875 6.075C47.0209 6.20833 47.3625 6.45417 47.6125 6.8125C47.8625 7.17083 47.9875 7.56667 47.9875 8C47.9875 8.2 47.9584 8.4 47.9 8.6C47.8417 8.8 47.7459 8.99167 47.6125 9.175L44.8625 13.075L44.9625 17.175C44.9792 17.7583 44.7875 18.25 44.3875 18.65C43.9875 19.05 43.5209 19.25 42.9875 19.25C42.9542 19.25 42.7709 19.225 42.4375 19.175L37.9625 17.925L33.4875 19.175C33.4042 19.2083 33.3125 19.2292 33.2125 19.2375C33.1125 19.2458 33.0209 19.25 32.9375 19.25C32.4042 19.25 31.9375 19.05 31.5375 18.65C31.1375 18.25 30.9459 17.7583 30.9625 17.175L31.0625 13.05L28.3375 9.175C28.2042 8.99167 28.1084 8.8 28.05 8.6C27.9917 8.4 27.9625 8.2 27.9625 8C27.9625 7.58333 28.0834 7.19583 28.325 6.8375C28.5667 6.47917 28.9042 6.225 29.3375 6.075L33.5875 4.65Z" fill="#FFC700"/>
<path d="M60.6125 4.65L63.4125 1.025C63.6125 0.758333 63.85 0.5625 64.125 0.4375C64.4 0.3125 64.6875 0.25 64.9875 0.25C65.2875 0.25 65.575 0.3125 65.85 0.4375C66.125 0.5625 66.3625 0.758333 66.5625 1.025L69.3625 4.65L73.6125 6.075C74.0459 6.20833 74.3875 6.45417 74.6375 6.8125C74.8875 7.17083 75.0125 7.56667 75.0125 8C75.0125 8.2 74.9834 8.4 74.925 8.6C74.8667 8.8 74.7709 8.99167 74.6375 9.175L71.8875 13.075L71.9875 17.175C72.0042 17.7583 71.8125 18.25 71.4125 18.65C71.0126 19.05 70.5459 19.25 70.0125 19.25C69.9792 19.25 69.7959 19.225 69.4625 19.175L64.9875 17.925L60.5125 19.175C60.4292 19.2083 60.3375 19.2292 60.2375 19.2375C60.1375 19.2458 60.0459 19.25 59.9625 19.25C59.4292 19.25 58.9625 19.05 58.5625 18.65C58.1625 18.25 57.9709 17.7583 57.9875 17.175L58.0875 13.05L55.3625 9.175C55.2292 8.99167 55.1334 8.8 55.075 8.6C55.0167 8.4 54.9875 8.2 54.9875 8C54.9875 7.58333 55.1084 7.19583 55.35 6.8375C55.5917 6.47917 55.9292 6.225 56.3625 6.075L60.6125 4.65Z" fill="#FFC700"/>
<path d="M87.6375 4.65L90.4375 1.025C90.6375 0.758333 90.875 0.5625 91.15 0.4375C91.425 0.3125 91.7125 0.25 92.0125 0.25C92.3125 0.25 92.6 0.3125 92.875 0.4375C93.15 0.5625 93.3875 0.758333 93.5875 1.025L96.3875 4.65L100.637 6.075C101.071 6.20833 101.412 6.45417 101.662 6.8125C101.912 7.17083 102.037 7.56667 102.037 8C102.037 8.2 102.008 8.4 101.95 8.6C101.892 8.8 101.796 8.99167 101.662 9.175L98.9125 13.075L99.0125 17.175C99.0291 17.7583 98.8375 18.25 98.4375 18.65C98.0375 19.05 97.5708 19.25 97.0375 19.25C97.0041 19.25 96.8208 19.225 96.4875 19.175L92.0125 17.925L87.5375 19.175C87.4541 19.2083 87.3625 19.2292 87.2625 19.2375C87.1625 19.2458 87.0708 19.25 86.9875 19.25C86.4541 19.25 85.9875 19.05 85.5875 18.65C85.1875 18.25 84.9958 17.7583 85.0125 17.175L85.1125 13.05L82.3875 9.175C82.2541 8.99167 82.1583 8.8 82.1 8.6C82.0416 8.4 82.0125 8.2 82.0125 8C82.0125 7.58333 82.1333 7.19583 82.375 6.8375C82.6166 6.47917 82.9541 6.225 83.3875 6.075L87.6375 4.65Z" fill="#FFC700"/>
<path d="M114.662 4.65L117.462 1.025C117.662 0.758333 117.9 0.5625 118.175 0.4375C118.45 0.3125 118.737 0.25 119.037 0.25C119.337 0.25 119.625 0.3125 119.9 0.4375C120.175 0.5625 120.412 0.758333 120.612 1.025L123.412 4.65L127.662 6.075C128.096 6.20833 128.437 6.45417 128.687 6.8125C128.937 7.17083 129.062 7.56667 129.062 8C129.062 8.2 129.033 8.4 128.975 8.6C128.917 8.8 128.821 8.99167 128.687 9.175L125.937 13.075L126.037 17.175C126.054 17.7583 125.862 18.25 125.462 18.65C125.062 19.05 124.596 19.25 124.062 19.25C124.029 19.25 123.846 19.225 123.512 19.175L119.037 17.925L114.562 19.175C114.479 19.2083 114.387 19.2292 114.287 19.2375C114.187 19.2458 114.096 19.25 114.012 19.25C113.479 19.25 113.012 19.05 112.612 18.65C112.212 18.25 112.021 17.7583 112.037 17.175L112.137 13.05L109.412 9.175C109.279 8.99167 109.183 8.8 109.125 8.6C109.067 8.4 109.037 8.2 109.037 8C109.037 7.58333 109.158 7.19583 109.4 6.8375C109.642 6.47917 109.979 6.225 110.412 6.075L114.662 4.65Z" fill="#FFC700"/>
<path fill-rule="evenodd" clip-rule="evenodd" d="M119 0V17.675L123.475 18.925C123.808 18.975 123.992 19 124.025 19C124.558 19 125.025 18.8 125.425 18.4C125.825 18 126.017 17.5083 126 16.925L125.9 12.825L128.65 8.925C128.783 8.74167 128.879 8.55 128.938 8.35C128.996 8.15 129.025 7.95 129.025 7.75C129.025 7.31667 128.9 6.92083 128.65 6.5625C128.4 6.20417 128.058 5.95833 127.625 5.825L123.375 4.4L120.575 0.775C120.375 0.508333 120.138 0.3125 119.863 0.1875C119.588 0.0625 119.3 0 119 0Z" fill="#451A09"/>
</svg>
